<?xml version="1.0" encoding="iso-8859-1"?>
<!-- Generator: Adobe Illustrator 19.0.0, SVG Export Plug-In . SVG Version: 6.00 Build 0)  -->
<svg version="1.1" id="Capa_1" xmlns="http://www.w3.org/2000/svg" xmlns:xlink="http://www.w3.org/1999/xlink" x="0px" y="0px"
	 viewBox="0 0 512 512" style="enable-background:new 0 0 512 512;" xml:space="preserve">
<g>
	<g>
		<path d="M393.253,0H118.747C95.595,0,76.76,18.835,76.76,41.987v432.385c0,13.415,6.892,25.504,18.437,32.337
			c5.954,3.524,12.537,5.291,19.131,5.291c6.191,0,12.393-1.559,18.089-4.684l119.955-65.818c2.273-1.246,4.985-1.246,7.258,0
			l119.955,65.818c11.761,6.453,25.675,6.226,37.219-0.608c11.545-6.834,18.437-18.922,18.437-32.337V41.987
			C435.24,18.835,416.405,0,393.253,0z M134.091,472.138l-16.123,8.846c-3.403,1.866-6.359,0.537-7.472-0.122
			c-1.112-0.659-3.7-2.61-3.7-6.491V41.987c0-6.59,5.361-11.951,11.951-11.951h15.344V472.138z M347.5,455.452l-73.423-40.287
			c-11.318-6.21-24.834-6.21-36.154,0l-73.797,40.492V30.036H347.5V455.452z M405.205,474.37L405.205,474.37
			c-0.001,3.882-2.589,5.833-3.701,6.491c-1.112,0.659-4.067,1.989-7.471,0.122l-17.142-9.406c0.416-1.378,0.646-2.836,0.646-4.35
			V30.036h15.718c6.59,0,11.951,5.36,11.951,11.951V474.37z"/>
	</g>
</g>
<g>
</g>
<g>
</g>
<g>
</g>
<g>
</g>
<g>
</g>
<g>
</g>
<g>
</g>
<g>
</g>
<g>
</g>
<g>
</g>
<g>
</g>
<g>
</g>
<g>
</g>
<g>
</g>
<g>
</g>
</svg>
